<svg width="11" height="20" viewBox="0 0 11 20" fill="none" xmlns="http://www.w3.org/2000/svg">
<path d="M10.5963 0H7.97248C4.99541 0 3.07798 1.9403 3.07798 4.92537V7.21393H0.40367C0.151376 7.21393 0 7.41294 0 7.61194V10.8955C0 11.1443 0.201835 11.2935 0.40367 11.2935H3.07798V19.602C3.07798 19.8507 3.27982 20 3.48165 20H6.9633C7.2156 20 7.36697 19.801 7.36697 19.602V11.2935H10.445C10.6972 11.2935 10.8486 11.0945 10.8486 10.8955V7.61194C10.8486 7.51244 10.7982 7.41294 10.7477 7.31343C10.6468 7.21393 10.5459 7.21393 10.445 7.21393H7.36697V5.27363C7.36697 4.32836 7.56881 3.8806 8.83028 3.8806H10.5963C10.8486 3.8806 11 3.68159 11 3.48259V0.39801C11 0.199005 10.7982 0 10.5963 0Z" fill="#3171B0"/>
</svg>
