<svg width="14" height="20" viewBox="0 0 14 20" fill="none" xmlns="http://www.w3.org/2000/svg">
<path d="M12.1877 0.95672H10.4207L11.0097 1.45786C11.2362 1.64009 11.4628 1.91344 11.6893 2.18679C11.9159 2.46014 12.0971 2.8246 12.233 3.18907C12.3689 3.55353 12.4595 4.00911 12.4595 4.51025C12.4595 4.96583 12.3689 5.42141 12.233 5.78588C12.0971 6.15034 11.9159 6.46925 11.6893 6.78815C11.4628 7.0615 11.1909 7.33485 10.9191 7.56264L10.0129 8.24601C9.83172 8.42825 9.65049 8.61048 9.46926 8.79271C9.28803 8.97494 9.19741 9.24829 9.19741 9.52164C9.19741 9.79499 9.28803 10.0683 9.51456 10.205C9.7411 10.3872 9.92233 10.5239 10.1036 10.615L11.1003 11.344C11.3722 11.5718 11.644 11.8451 11.9159 12.0729C12.1877 12.3007 12.4142 12.574 12.5955 12.8929C12.7767 13.1663 12.9579 13.4852 13.0485 13.8497C13.1845 14.2141 13.2298 14.5786 13.2298 15.0342C13.2298 15.672 13.0939 16.2642 12.7767 16.8565C12.4595 17.4487 12.0065 17.9954 11.4175 18.451C10.8285 18.9066 10.0583 19.3166 9.1521 19.59C8.24595 19.8633 7.24919 20 6.0712 20C5.02913 20 4.16828 19.9089 3.39806 19.6811C2.62783 19.4533 1.99353 19.18 1.49515 18.8155C0.996764 18.451 0.634304 18.0866 0.36246 17.631C0.135922 17.1754 0 16.7198 0 16.2187C0 15.7631 0.135922 15.2164 0.453074 14.5786C0.770227 13.9863 1.31392 13.4396 2.12945 12.9841C2.58252 12.7563 3.0356 12.5285 3.53398 12.3918C4.03236 12.2551 4.53074 12.1185 4.98382 12.0273C5.43689 11.9362 5.93528 11.8907 6.34304 11.8451C6.79612 11.7995 7.15858 11.7995 7.47573 11.754C7.2945 11.5262 7.11327 11.2528 6.93204 10.9795C6.75081 10.7062 6.7055 10.3872 6.7055 9.93166C6.7055 9.70387 6.75081 9.52164 6.79612 9.38497C6.84142 9.24829 6.93204 9.06606 6.97735 8.92939C6.84142 8.92939 6.7055 8.97494 6.52427 8.97494C6.38835 8.97494 6.20712 8.97494 6.0712 8.97494C5.30097 8.97494 4.66667 8.83827 4.07767 8.61048C3.48867 8.38269 2.99029 8.06378 2.58252 7.65376C2.17476 7.24374 1.85761 6.83371 1.67638 6.33257C1.44984 5.83143 1.35922 5.3303 1.35922 4.82916C1.35922 4.2369 1.49515 3.59909 1.8123 2.96128C2.12945 2.50569 2.58252 1.959 3.17152 1.45786C3.98705 0.820046 4.8479 0.410023 5.70874 0.273349C6.61489 0.0911162 7.43042 0 8.20065 0H14L12.1877 0.95672ZM11.4628 16.1276C11.4628 15.8087 11.4175 15.4897 11.2816 15.2164C11.1909 14.9431 11.0097 14.6697 10.7832 14.4419C10.5566 14.1686 10.2395 13.9408 9.83172 13.6219C9.42395 13.3485 8.97087 13.0296 8.47249 12.6651C8.38188 12.6196 8.29126 12.6196 8.20065 12.6196H7.83819C7.74757 12.6196 7.61165 12.6196 7.43042 12.6196C7.24919 12.6196 6.97735 12.6651 6.7055 12.6651C6.43366 12.7107 6.1165 12.7563 5.79935 12.8018C5.4822 12.8474 5.16505 12.9385 4.8932 13.0296C4.71197 13.0752 4.53074 13.1663 4.2589 13.2574C3.98705 13.3485 3.71521 13.5308 3.44337 13.7585C3.17152 13.9863 2.94498 14.2141 2.76375 14.533C2.58252 14.8519 2.49191 15.262 2.49191 15.7175C2.49191 16.1731 2.58252 16.6287 2.80906 16.9932C3.0356 17.3576 3.35275 17.7221 3.80582 17.9954C4.21359 18.2688 4.75728 18.4966 5.34628 18.6788C5.93528 18.8155 6.61489 18.9066 7.38511 18.9066C8.74434 18.9066 9.7411 18.6333 10.4207 18.1321C11.1456 17.5854 11.4628 16.9476 11.4628 16.1276ZM9.24272 7.6082C9.55987 7.28929 9.7411 6.97039 9.83172 6.60592C9.92233 6.24146 9.92233 5.96811 9.92233 5.69476C9.92233 5.23918 9.83171 4.69248 9.69579 4.14579C9.55987 3.59909 9.33333 3.05239 9.06149 2.59681C8.78964 2.09567 8.42718 1.68565 7.97411 1.36674C7.52104 1.04784 7.02265 0.865604 6.47896 0.865604C6.1165 0.865604 5.75405 0.95672 5.39159 1.09339C5.02913 1.27563 4.75728 1.45786 4.53074 1.73121C4.30421 2.00456 4.12298 2.32346 4.03236 2.64237C3.94175 3.00683 3.89644 3.32574 3.89644 3.69021C3.89644 4.14579 3.98705 4.60137 4.07767 5.14806C4.21359 5.69476 4.44013 6.1959 4.71197 6.65148C4.98382 7.10706 5.34628 7.51708 5.79935 7.83599C6.25243 8.1549 6.75081 8.33713 7.33981 8.33713C7.70227 8.33713 8.01942 8.29157 8.38188 8.1549C8.74434 8.01822 9.01618 7.83599 9.24272 7.6082Z" fill="#9F1B1B"/>
</svg>
